<?xml version="1.0" standalone="no"?>
<!DOCTYPE svg PUBLIC "-//W3C//DTD SVG 20010904//EN"
 "http://www.w3.org/TR/2001/REC-SVG-20010904/DTD/svg10.dtd">
<svg version="1.0" xmlns="http://www.w3.org/2000/svg"
 width="25.000000pt" height="24.000000pt" viewBox="0 0 25.000000 24.000000"
 preserveAspectRatio="xMidYMid meet">

<g transform="translate(0.000000,24.000000) scale(0.100000,-0.100000)"
fill="#000000" stroke="none">
<path d="M160 214 c0 -4 8 -16 17 -26 12 -14 14 -21 5 -30 -9 -9 -16 -7 -32 7
-19 17 -21 17 -40 0 -16 -15 -22 -16 -35 -5 -14 12 -14 15 1 31 10 11 14 19
10 19 -7 0 -47 -19 -55 -26 -9 -8 43 -54 61 -54 10 0 18 -7 18 -15 0 -8 7 -15
15 -15 8 0 15 -4 15 -10 0 -5 -7 -10 -15 -10 -8 0 -15 5 -15 10 0 6 -9 10 -19
10 -11 0 -21 5 -23 11 -2 6 -11 2 -21 -9 -12 -13 -15 -22 -8 -27 6 -3 11 -1
11 4 0 26 29 8 36 -22 6 -27 8 -29 14 -13 5 14 9 16 14 7 6 -9 11 -9 22 0 11
9 14 8 14 -5 0 -10 5 -14 10 -11 6 3 10 15 10 26 0 24 29 37 41 18 7 -12 9
-12 9 0 0 8 -7 23 -16 32 -15 17 -15 20 0 45 10 14 16 27 14 28 -38 25 -58 35
-58 30z m-20 -74 c0 -5 -4 -10 -9 -10 -6 0 -13 5 -16 10 -3 6 1 10 9 10 9 0
16 -4 16 -10z m40 -23 c0 -8 -3 -17 -7 -20 -9 -9 -34 13 -27 24 8 14 34 11 34
-4z"/>
</g>
</svg>
