<?xml version="1.0" standalone="no"?>
<!DOCTYPE svg PUBLIC "-//W3C//DTD SVG 20010904//EN"
 "http://www.w3.org/TR/2001/REC-SVG-20010904/DTD/svg10.dtd">
<svg version="1.0" xmlns="http://www.w3.org/2000/svg"
 width="33.000000pt" height="32.000000pt" viewBox="0 0 33.000000 32.000000"
 preserveAspectRatio="xMidYMid meet">

<g transform="translate(0.000000,32.000000) scale(0.100000,-0.100000)"
fill="#000000" stroke="none">
<path d="M156 262 c-9 -26 -23 -28 -48 -5 -17 15 -18 14 -18 -15 0 -26 -4 -32
-22 -32 l-23 -1 23 -18 c15 -13 22 -30 22 -53 0 -27 9 -43 41 -73 l40 -40 40
42 c28 31 39 51 39 74 0 20 8 37 23 50 l22 18 -22 1 c-19 0 -23 6 -23 31 l0
31 -27 -17 c-25 -17 -27 -17 -43 5 l-18 23 -6 -21z m70 -117 c-16 -25 -46 -34
-46 -15 0 6 12 22 27 36 32 29 43 16 19 -21z m-86 15 c25 -25 26 -40 2 -40
-15 0 -42 36 -42 55 0 12 22 3 40 -15z"/>
</g>
</svg>
