<svg xmlns="http://www.w3.org/2000/svg" width="16" height="16" fill="none" class="child:fill-red-25" data-sentry-element="CoinPurple" data-sentry-source-file="post-game.tsx"><path fill="#A073FF" fill-opacity="0.5" fill-rule="evenodd" d="M11.3 9.275c1.315-.417 2.2-1.188 2.2-2.029V5.354C13.5 4.1 11.531 3 9.1 3S4.7 4.1 4.7 5.354v1.27c-1.315.418-2.2 1.19-2.2 2.03v1.892C2.5 11.8 4.469 12.9 6.9 12.9s4.4-1.1 4.4-2.354zm-6.02-.88C6.04 9.103 7.466 9.6 9.1 9.6q.223 0 .44-.012v.727a4.4 4.4 0 0 1-2.64.704 4.4 4.4 0 0 1-2.64-.704v-1.43a4.4 4.4 0 0 1 1.02-.49" clip-rule="evenodd"></path></svg>