<svg xmlns="http://www.w3.org/2000/svg" width="12" height="12" fill="none" class="child:fill-red-25" data-sentry-element="SwordPurple" data-sentry-source-file="post-game.tsx"><g fill="#A073FF" fill-opacity="0.5" clip-path="url(#sword-purple_svg__a)"><path d="m.804 9.702.746-.746 1.491 1.492-.745.745zM.308 11.692c.412.41 1.08.41 1.492 0L.308 10.2a1.056 1.056 0 0 0 0 1.492M8.955 10.449l1.491-1.492.746.746-1.491 1.491zM10.2 11.692a1.056 1.056 0 0 0 1.492-1.492zM9.951 8.46l-.497-.497.746-.746a.351.351 0 1 0-.497-.497L6.72 9.703a.351.351 0 1 0 .497.497l.746-.746.497.497zM3.017 6.497l-.448.448-.248-.249a.351.351 0 1 0-.497.497l.745.746-.52.52L3.54 9.952l.52-.52.747.746a.351.351 0 1 0 .497-.498l-.249-.248.448-.448zM11.648 0H9.66a.35.35 0 0 0-.249.103L6.497 3.017l2.486 2.486 2.914-2.914A.35.35 0 0 0 12 2.34V.352A.35.35 0 0 0 11.648 0M2.59.103A.35.35 0 0 0 2.34 0H.353A.35.35 0 0 0 0 .352V2.34c0 .093.037.183.103.249l6.368 6.368 2.486-2.486z"></path></g><defs><clipPath id="sword-purple_svg__a"><path fill="#fff" d="M0 0h12v12H0z"></path></clipPath></defs></svg>