<?xml version="1.0" standalone="no"?>
<!DOCTYPE svg PUBLIC "-//W3C//DTD SVG 20010904//EN"
 "http://www.w3.org/TR/2001/REC-SVG-20010904/DTD/svg10.dtd">
<svg version="1.0" xmlns="http://www.w3.org/2000/svg"
 width="25.000000pt" height="24.000000pt" viewBox="0 0 25.000000 24.000000"
 preserveAspectRatio="xMidYMid meet">

<g transform="translate(0.000000,24.000000) scale(0.100000,-0.100000)"
fill="#000000" stroke="none">
<path d="M102 207 c-12 -13 -22 -29 -22 -35 0 -7 -8 -12 -17 -12 -12 0 -6 -11
22 -40 l39 -40 39 37 c28 28 34 39 22 41 -8 2 -12 8 -9 13 6 10 -33 59 -46 59
-4 0 -16 -10 -28 -23z m37 -43 c-14 -14 -17 -14 -29 0 -10 13 -10 19 0 32 12
14 15 14 29 0 14 -15 14 -17 0 -32z"/>
<path d="M80 96 c0 -4 5 -27 11 -52 10 -40 14 -45 37 -42 22 3 28 11 38 52
l12 48 -24 -23 -24 -22 -25 23 c-14 13 -25 20 -25 16z"/>
</g>
</svg>
